<svg width="24" height="26" viewBox="0 0 24 26" fill="none" xmlns="http://www.w3.org/2000/svg">
<path d="M15.9223 12.35C15.9223 13.143 15.3051 13.793 14.5234 13.793C13.7554 13.793 13.1246 13.143 13.1246 12.35C13.1246 11.557 13.7417 10.907 14.5234 10.907C15.3051 10.907 15.9223 11.557 15.9223 12.35ZM9.51771 10.907C8.736 10.907 8.11886 11.557 8.11886 12.35C8.11886 13.143 8.74971 13.793 9.51771 13.793C10.2994 13.793 10.9166 13.143 10.9166 12.35C10.9303 11.557 10.2994 10.907 9.51771 10.907ZM24 2.678V26C20.545 23.1058 21.6499 24.0638 17.6366 20.527L18.3634 22.932H2.81143C1.26171 22.932 0 21.736 0 20.254V2.678C0 1.196 1.26171 0 2.81143 0H21.1886C22.7383 0 24 1.196 24 2.678ZM20.0914 15.002C20.0914 10.816 18.1166 7.423 18.1166 7.423C16.1417 6.019 14.2629 6.058 14.2629 6.058L14.0709 6.266C16.4023 6.942 17.4857 7.917 17.4857 7.917C14.228 6.22451 10.4012 6.22421 7.24114 7.54C6.73371 7.761 6.432 7.917 6.432 7.917C6.432 7.917 7.57029 6.89 10.0389 6.214L9.90171 6.058C9.90171 6.058 8.02286 6.019 6.048 7.423C6.048 7.423 4.07314 10.816 4.07314 15.002C4.07314 15.002 5.22514 16.887 8.256 16.978C8.256 16.978 8.76343 16.393 9.17486 15.899C7.43314 15.405 6.77486 14.365 6.77486 14.365C6.97661 14.4989 7.30929 14.6724 7.33714 14.69C9.65196 15.9188 12.9401 16.3214 15.8949 15.145C16.3749 14.976 16.9097 14.729 17.472 14.378C17.472 14.378 16.7863 15.444 14.9897 15.925C15.4011 16.419 15.8949 16.978 15.8949 16.978C18.9257 16.887 20.0914 15.002 20.0914 15.002V15.002Z" fill="white"/>
</svg>
