<svg width="25" height="24" viewBox="0 0 25 24" fill="none" xmlns="http://www.w3.org/2000/svg">
<path d="M15.764 16.7159C15.764 17.1895 15.4284 17.573 15.014 17.573H10.514C10.0996 17.573 9.764 17.1895 9.764 16.7159V14.1445H0.764V21.8588C0.764 23.2302 1.814 24.4302 3.014 24.4302H22.514C23.714 24.4302 24.764 23.2302 24.764 21.8588V14.1445H15.764V16.7159ZM22.514 5.57305H18.764V3.00162C18.764 1.63019 17.714 0.430191 16.514 0.430191H9.014C7.814 0.430191 6.764 1.63019 6.764 3.00162V5.57305H3.014C1.814 5.57305 0.764 6.77305 0.764 8.14448V12.4302H24.764V8.14448C24.764 6.77305 23.714 5.57305 22.514 5.57305ZM15.764 5.57305H9.764V3.85876H15.764V5.57305Z" fill="white"/>
</svg>
