<svg width="24" height="17" viewBox="0 0 24 17" fill="none" xmlns="http://www.w3.org/2000/svg">
<path d="M20.9826 0.981277L20.9829 0.981359C21.8288 1.20892 22.4981 1.88128 22.7252 2.73611L23.2084 2.60777L22.7253 2.7364C22.9579 3.61017 23.0805 4.99762 23.1425 6.20237C23.1731 6.7973 23.1884 7.33521 23.1961 7.72441C23.1999 7.9189 23.2018 8.07598 23.2028 8.18415C23.2033 8.23823 23.2035 8.28006 23.2036 8.30822L23.2037 8.34L23.2037 8.34786L23.2037 8.34972V8.35012V8.35017V8.35023V8.35063L23.2037 8.35249L23.2037 8.36034L23.2036 8.39213C23.2035 8.42028 23.2033 8.46212 23.2028 8.5162C23.2018 8.62437 23.1999 8.78145 23.1961 8.97594C23.1884 9.36514 23.1731 9.90304 23.1425 10.498C23.0805 11.7027 22.9579 13.0902 22.7253 13.9639L22.7252 13.9642C22.5004 14.8104 21.8375 15.4554 20.9829 15.6853L20.9826 15.6854C20.5727 15.7959 19.808 15.8873 18.8493 15.9577C17.9047 16.027 16.8129 16.0735 15.7742 16.1046C14.7362 16.1356 13.7553 16.1511 13.0335 16.1589C12.6728 16.1628 12.377 16.1647 12.1716 16.1657C12.0689 16.1662 11.9888 16.1664 11.9344 16.1665L11.8726 16.1667L11.857 16.1667L11.8531 16.1667H11.8521H11.8519L11.8519 16.6667L11.8518 16.1667H11.8516H11.8506L11.8468 16.1667L11.8311 16.1667L11.7693 16.1665C11.7149 16.1664 11.6348 16.1662 11.5321 16.1657C11.3267 16.1647 11.0309 16.1628 10.6702 16.1589C9.94846 16.1511 8.96751 16.1356 7.92957 16.1046C6.89083 16.0735 5.79906 16.027 4.85446 15.9577C3.89573 15.8873 3.13105 15.7959 2.72116 15.6854L2.72086 15.6853C1.8662 15.4554 1.2033 14.8104 0.97856 13.9642L0.978484 13.9639C0.745869 13.0902 0.623256 11.7027 0.561253 10.498C0.530635 9.90304 0.515307 9.36514 0.507642 8.97594C0.503812 8.78145 0.501901 8.62437 0.500948 8.5162C0.500471 8.46212 0.500234 8.42028 0.500117 8.39213L0.500014 8.36034L0.500002 8.35249L0.5 8.35063L0.5 8.35023V8.35019V8.35015V8.35012L0.5 8.34972L0.500002 8.34786L0.500014 8.34L0.500117 8.30822C0.500234 8.28006 0.500471 8.23823 0.500948 8.18415C0.501901 8.07598 0.503812 7.9189 0.507642 7.72441C0.515307 7.33521 0.530635 6.7973 0.561253 6.20237C0.623256 4.99762 0.745869 3.61017 0.978484 2.7364L0.97856 2.73611C1.20558 1.88129 1.87494 1.20896 2.72088 0.981353L2.72116 0.981278C3.13105 0.870739 3.89573 0.779362 4.85446 0.708973C5.79906 0.639622 6.89083 0.59315 7.92957 0.562092C8.96751 0.531058 9.94846 0.515528 10.6702 0.50776C11.0309 0.503878 11.3267 0.501938 11.5321 0.500968C11.6348 0.500483 11.7149 0.500241 11.7693 0.50012L11.8311 0.500015L11.8468 0.500002L11.8506 0.5L11.8516 0.5H11.8518L11.8519 0L11.8519 0.5H11.8521L11.8531 0.5L11.857 0.500002L11.8726 0.500015L11.9344 0.50012C11.9888 0.500241 12.0689 0.500483 12.1716 0.500968C12.377 0.501938 12.6728 0.503878 13.0336 0.50776C13.7553 0.515528 14.7362 0.531058 15.7742 0.562092C16.8129 0.59315 17.9047 0.639622 18.8493 0.708973C19.808 0.779362 20.5727 0.870739 20.9826 0.981277ZM9.67485 4.39114L8.9276 3.96603V4.82574V11.8746H9.4276L9.67484 12.3092L15.8701 8.78486L16.634 8.35027L15.8701 7.91567L9.67485 4.39114Z" fill="white" stroke="white"/>
</svg>
